<svg xmlns:x="&amp;ns_extend;" xmlns:i="&amp;ns_ai;" xmlns:graph="&amp;ns_graphs;" xmlns="http://www.w3.org/2000/svg" xmlns:xlink="http://www.w3.org/1999/xlink" version="1.1" id="Layer_1" x="0px" y="0px" viewBox="0 0 267.0029907 315" style="enable-background:new 0 0 267.0029907 315;" xml:space="preserve">
      <style type="text/css">.st0{fill:#131414;}</style>
    <metadata fill="#1289a7">
              <sfw fill="#1289a7">
                      <slices fill="#1289a7"/>
            <sliceSourceBounds bottomLeftOrigin="true" height="315" width="267.0029907" x="-67.7832947" y="-76.8753433" fill="#1289a7"/>
                  </sfw>
          </metadata>
    <g id="color_index_0" fill="#202729">
              <path d="M228.0129242,87.7179031L140.2949066,0l73.6761169,128.9833527l-0.0251312,0.0072784&#9;&#9;c8.0212402,13.7547302,12.638092,29.7385406,12.638092,46.809433c0,51.4080963-41.6744995,93.0824738-93.082489,93.0824738&#9;&#9;s-93.0824738-41.6743774-93.0824738-93.0824738c0-17.0708923,4.6168556-33.0547028,12.638092-46.809433l-0.0251236-0.0072784&#9;&#9;L126.7080917,0L38.990078,87.7179031c-51.9867706,52.0054092-51.9867706,136.290741,0,188.2961731&#9;&#9;c26.0958748,26.0772095,60.3129158,39.0786438,94.5114136,38.9854431&#9;&#9;c34.1985168,0.0932007,68.4155579-12.9082336,94.5114288-38.9854431&#9;&#9;C279.9996948,224.0086517,279.9996948,139.7233124,228.0129242,87.7179031z" fill="#1289a7"/>
        <path d="M133.5014954,210.3960266c0,0,24.9186401,1.132782,24.9186401-37.2701263&#9;&#9;c0-38.4030304-24.9186401-157.5767212-24.9186401-157.5767212s-24.9186325,119.1736908-24.9186325,157.5767212&#9;&#9;C108.5828629,211.5288086,133.5014954,210.3960266,133.5014954,210.3960266z" fill="#1289a7"/>
          </g>
  </svg>